<?xml version="1.0" standalone="no"?>
<!DOCTYPE svg PUBLIC "-//W3C//DTD SVG 20010904//EN"
 "http://www.w3.org/TR/2001/REC-SVG-20010904/DTD/svg10.dtd">
<svg version="1.0" xmlns="http://www.w3.org/2000/svg"
 width="512.000000pt" height="512.000000pt" viewBox="0 0 512.000000 512.000000"
 preserveAspectRatio="xMidYMid meet">

<g transform="translate(0.000000,512.000000) scale(0.100000,-0.100000)"
fill="#000000" stroke="none">
<path d="M2315 5109 c-786 -75 -1501 -518 -1927 -1196 -487 -774 -516 -1777
-75 -2578 117 -213 253 -395 430 -573 211 -214 421 -365 692 -498 260 -127
509 -203 810 -246 119 -17 512 -16 635 1 621 86 1148 360 1571 818 350 380
573 863 651 1408 20 139 17 503 -6 660 -21 155 -80 393 -131 531 -45 123 -167
374 -231 474 -196 309 -470 589 -769 788 -133 89 -391 218 -540 271 -357 126
-742 175 -1110 140z m425 -509 c493 -44 943 -258 1285 -611 112 -116 163 -180
253 -317 57 -86 161 -288 177 -340 l7 -23 -39 16 c-550 234 -1040 347 -1635
377 -694 34 -1379 -82 -2003 -340 -66 -28 -122 -48 -123 -47 -8 7 81 195 131
278 220 367 512 636 881 812 339 162 695 227 1066 195z m-15 -1695 c76 -37
143 -104 181 -180 26 -55 29 -69 29 -165 0 -96 -3 -110 -29 -165 -38 -76 -105
-143 -181 -181 -55 -26 -69 -29 -165 -29 -96 0 -110 3 -165 29 -76 38 -143
105 -180 180 -37 75 -46 194 -22 277 33 111 138 219 247 254 29 10 77 14 136
12 76 -2 99 -7 149 -32z m-2049 -510 c402 -71 832 -396 1133 -860 192 -294
301 -594 327 -897 5 -64 4 -78 -8 -78 -26 0 -224 59 -304 90 -620 245 -1078
762 -1244 1404 -26 98 -60 294 -60 340 0 21 39 21 156 1z m3924 -1 c0 -46 -34
-242 -60 -340 -182 -705 -719 -1260 -1413 -1460 -65 -19 -126 -34 -134 -34
-13 0 -15 12 -8 82 67 784 768 1628 1453 1752 110 20 162 20 162 0z"/>
</g>
</svg>
